# xmcd
#
# Track frame offsets: 
#        150
#        17767
#        37641
#        57944
#        75238
#        90838
#        106461
#        126163
#        143788
#        163213
#
# Disc length: 2446 seconds
#
# Revision: 2
# Processed by: cddbd v1.5.1PL0 Copyright (c) Steve Scherf et al.
# Submitted via: ExactAudioCopy v0.95b2
#
DISCID=6e098c0a
DTITLE=Александр Маршал - Может быть...
DYEAR=1998
DGENRE=Pop
TTITLE0=Ливень
TTITLE1=Может быть
TTITLE2=Орел
TTITLE3=С днем рождения
TTITLE4=Улетаю вновь
TTITLE5=Погоди, постой
TTITLE6=Кленовый лист
TTITLE7=Дорога
TTITLE8=Снегопад
TTITLE9=На перекрестке
EXTD=
EXTT0=
EXTT1=
EXTT2=
EXTT3=
EXTT4=
EXTT5=
EXTT6=
EXTT7=
EXTT8=
EXTT9=
PLAYORDER=
